<?xml version="1.0" encoding="utf-8"?>
<!-- Generator: Adobe Illustrator 24.0.1, SVG Export Plug-In . SVG Version: 6.00 Build 0)  -->
<svg version="1.1" id="Calque_1" xmlns="http://www.w3.org/2000/svg" xmlns:xlink="http://www.w3.org/1999/xlink" x="0px" y="0px"
	 viewBox="0 0 1471.68 1767.84" style="enable-background:new 0 0 1471.68 1767.84;" xml:space="preserve">
<style type="text/css">
	.st0{fill:#FFFFFF;}
</style>
<g>
	<path class="st0" d="M1470.46,1418.62c-0.16-3.35-0.17-6.71-0.17-10.07c-0.01-220.89-0.02-441.78,0.02-662.67
		c0-5.96-0.42-11.8-2.39-17.48c-6.77-19.48-24.74-32.31-45.87-32.4c-26.22-0.11-52.44-0.03-78.67-0.03h-6.3v-6.01
		c0-53.1-0.05-106.2,0.06-159.31c0.02-8.8-1.34-17.15-5.26-25.08c-0.83-1.67-1.22-3.63-1.48-5.51
		c-9.07-65.57-29.05-127.66-60.15-186.06c-53.33-100.16-129.85-177.9-228.15-234.24C982.64,45.67,919.02,22.8,851.62,10.38
		c-28.03-5.16-56.26-8.32-84.72-9.61c-1.56-0.07-3.1-0.5-4.65-0.77h-43.17c-1.87,0.28-3.73,0.72-5.61,0.81
		C592.5,6.86,482.21,44.15,384.1,115.4c-100.41,72.91-170.83,168.35-210.33,286.25c-11.56,34.5-19.33,69.87-23.84,105.99
		c-4.25,34.06-5.47,68.21-3.35,102.45c0.72,11.64,2.14,23.24,3.23,34.86c0.1,1.11,0.18,2.23,0.18,3.35
		c0.01,14.71,0.01,29.43,0,44.14c0,0.94-0.1,1.87-0.18,3.31c-2.01,0.07-3.86,0.21-5.71,0.21c-30.86,0.02-61.72-0.13-92.58,0.07
		c-18.75,0.11-33.15,8.34-42.73,24.6c-4.14,7.03-5.93,14.79-6.2,22.9c-0.07,1.92-0.02,3.84-0.02,5.76
		c0,214.8,0.02,429.6-0.06,644.41c0,9.57-0.49,19.19-1.41,28.72c-1.29,13.47-0.45,26.87,0.6,40.25c2.56,32.57,9.88,64.09,22.38,94.3
		c29.7,71.8,79.04,126.27,146.33,164.57c38.04,21.66,78.88,35.52,122.24,41.58c13.27,1.85,26.71,2.53,40.06,3.8
		c1.53,0.15,3.02,0.61,4.53,0.92h818.36c4.34-0.9,8.64-2.13,13.02-2.66c65.96-7.91,125.46-31.73,177.62-72.96
		c57.34-45.33,96.02-103.27,114.94-174.07c5.24-19.64,8.84-39.59,9.28-60.01c0.04-1.7,0.51-3.4,0.78-5.09v-29.76
		C1470.97,1421.74,1470.53,1420.19,1470.46,1418.62z M505.23,319.04c47.29-43.27,103.42-69.34,166.29-81.16
		c27.17-5.11,54.58-7,82.11-5.39c81.13,4.74,152.97,32.82,213.54,87.5c47.86,43.21,79.5,96.35,93.83,159.45
		c5.76,25.39,8.08,51.12,6.74,77.17c-0.2,3.95,0.67,7.95,0.68,11.93c0.05,41.11,0.04,82.22,0.03,123.32c0,1.11-0.09,2.22-0.16,3.88
		H404.55v-5.82c0-37.42,0.05-74.85-0.04-112.28c-0.02-6.55-0.74-13.09-0.96-19.64C400.32,462.55,435.23,383.09,505.23,319.04z
		 M1155.27,1014.83c-1.36,19.12-4.49,38.04-12.51,55.75c-0.46,1-0.97,1.98-1.54,2.92c-0.22,0.37-0.67,0.62-1.49,1.35
		c-33.83-26.59-67.7-53.2-101.98-80.15c-1.49,6.38-2.87,11.98-4.11,17.62c-9.45,42.77-20.28,85.19-32.09,127.37
		c-10.37,37.03-20.64,74.09-31.24,111.06c-9.65,33.65-20.3,67.01-32.17,99.95c-10.39,28.83-22.07,57.13-35.95,84.47
		c-16.29,32.08-35.66,62.14-59.75,88.96c-13.25,14.75-27.64,28.35-43.17,40.71c-21.48,17.1-44.61,31.56-69.26,43.64
		c-28.6,14.01-58.44,24.56-89.34,32.17c-3.36,0.83-6.71,1.63-10.09,2.36c-0.84,0.18-1.76,0.03-3.33,0.03
		c0.77-1.35,1.13-2.31,1.76-3.04c15.38-17.54,29.03-36.31,40.62-56.57c15.29-26.76,26.54-55.14,33.95-85.04
		c0.22-0.92,0.41-1.84,0.54-2.77c0.05-0.44-0.08-0.91-0.16-1.74c-5.32,2.21-10.42,4.46-15.62,6.45
		c-15.47,5.93-31.43,9.8-47.98,11.12c-2.18,0.17-4.41,0.21-6.52,0.71c-1.42,0.33-2.88,1.16-3.98,2.14
		c-7.37,6.6-14.41,13.59-22,19.92c-33.02,27.56-70.28,47.23-111.64,59.05c-16.16,4.62-32.62,7.78-49.33,9.77
		c-19.26,2.3-38.56,2.4-57.86,1.37c-10.14-0.54-20.23-2.22-30.34-3.46c-1.51-0.19-2.98-0.75-5.18-1.33
		c13.7-26.91,30.7-50.83,51.14-72.34c20.45-21.51,43.57-39.68,69.31-54.84c-24.22-4.24-44.16-15.36-59.13-34.71
		c-6.82-8.82-12.05-18.57-15.05-30.17h8c9.39,0,18.79,0.12,28.18-0.03c10.38-0.17,20.61-1.8,30.78-3.79
		c25.29-4.96,48.66-14.49,70.16-28.74c17.81-11.8,35.57-23.73,53.74-34.96c19.54-12.07,40.29-21.91,61.43-30.85
		c32.6-13.77,66-25.25,100.48-33.28c15.72-3.66,31.65-6.45,47.54-9.31c14.99-2.69,29.29-7.04,42.07-15.58
		c11.57-7.74,20.36-18.14,27.94-29.63c9.63-14.6,17.18-30.33,24.41-46.19c5.93-13,11.39-26.22,17.21-39.27
		c1.38-3.12,2.05-6.22,1.8-9.58c-1.97-26.13-14.27-45.03-38.74-55.43c-1.12-0.48-2.17-1.11-4.02-2.06c1.77-1.15,2.96-2.01,4.22-2.74
		c11.5-6.67,21.03-15.32,27.52-27.09c7.67-13.91,9.16-28.46,4.84-43.68c-1.9-6.7-4.7-12.98-8.61-18.77
		c-0.76-1.12-1.32-2.39-2.11-3.83c38.62-13.73,54.97-39.6,44.75-80.78c2.17-0.39,4.4-0.82,6.64-1.19
		c15.77-2.56,28.8-9.78,37.92-23.09c11.13-16.24,11.46-33.73,5.09-51.79c-0.41-1.18-0.91-2.33-1.32-3.52
		c-0.09-0.24,0.06-0.56,0.17-1.3c1.07-0.11,2.28-0.48,3.42-0.32c14.43,2.08,28.81,4.24,42.68,9.1c27.83,9.76,52.01,25.09,71.9,46.88
		c16.42,17.99,28.37,38.69,36.22,61.77c5.65,16.59,9.53,33.53,10.45,51.04C1155.15,991.3,1156.11,1003.15,1155.27,1014.83z"/>
</g>
</svg>
