<?xml version="1.0" encoding="utf-8"?>
<!-- Generator: Adobe Illustrator 24.0.1, SVG Export Plug-In . SVG Version: 6.00 Build 0)  -->
<svg version="1.1" id="Calque_1" xmlns="http://www.w3.org/2000/svg" xmlns:xlink="http://www.w3.org/1999/xlink" x="0px" y="0px"
	 viewBox="0 0 447 383" style="enable-background:new 0 0 447 383;" xml:space="preserve">
<style type="text/css">
	.st0{fill:#FEFEFE;}
	.st1{fill:#262626;}
	.st2{fill:#FDFDFD;}
	.st3{fill:#FCFCFC;}
	.st4{fill:#5B5B5B;}
	.st5{fill:#FAFAFA;}
	.st6{fill:#DDDDDD;}
	.st7{fill:#A5A5A5;}
	.st8{fill:#3A7C96;}
</style>
<g>
	<path class="st0" d="M23.63,382.83c-0.04-0.07-0.08-0.14-0.12-0.21c-0.06-0.1-0.11-0.21-0.16-0.31c-0.37-4.2-1.13-7.64-6.05-9.52
		c-4.09-1.56-4.42-6.24-4.44-10.32c-0.06-14.72-0.01-29.44-0.04-44.16c0-2.15,0.21-4.31-0.53-6.38c-1.3-2.18-3.46-1.43-5.35-1.56
		c-0.47-0.03-0.95-0.04-1.42-0.04c-1.23,0-2.45,0.03-3.59-0.4c-0.54-0.19-1.06-0.49-1.55-0.94c4.61,0.58,9.4-1.23,13.88,1.03
		c0.06,17.59,0.12,35.17,0.18,52.75c0.03,7.55,0.6,8.45,7.76,10.16c1.85,0.44,1.99,1.29,1.98,2.7c-0.01,2.32,0.01,4.64,0.02,6.97
		L23.63,382.83z"/>
	<path class="st0" d="M86.77,350.57c0.91,6.3,0.5,12.62-0.88,18.79c-1.83,8.21-6.59,12.22-15.15,13.5
		c-0.89,0.14-2.06-0.37-2.48,0.98c0.21-2.64,2.55-2.28,4.11-2.66c7.6-1.84,11.2-6.85,12.57-14.32c1.32-7.17,0.94-14.2-0.35-21.26
		c-1.25-6.88-5-11.54-12.18-12.69c-6.26-1-12.56-1.05-18.82,0.14c-6.25,1.2-9.92,5.1-11.34,11.16c-2.06,8.71-2.06,17.43,0.36,26.1
		c1.33,4.77,4.17,8.16,8.9,10.01c1.83,0.71,4.43,0.68,4.77,3.52c-0.05-0.16-0.06-0.41-0.17-0.46c-14.35-6.36-18.79-15.01-16.39-32
		c2.35-16.68,7.71-21.19,24.65-20.76C79.75,331.02,84.55,335.24,86.77,350.57z"/>
	<path class="st0" d="M146.24,375.74c-0.23,2.5,0.83,5.31-3.25,6.08c-2.95,0.56-6.19,0.11-8.84,2.02c0-2.2,1.86-1.99,3.18-2.35
		c1.59-0.44,3.27-0.61,4.82-1.22c1.55-0.61,2.44-1.7,2.27-3.44c-0.19-1.91-1.57-2.4-3.17-2.49c-3.81-0.2-7.64,0.01-11.45-0.12
		c-6.73-0.24-9.65-2.65-11.1-9.14c-1.17-5.26-1.39-10.54-0.04-15.79c1.69-6.54,5.34-9.45,12.07-9.72c3.15-0.12,6.31,0.08,9.47-0.12
		c1.55-0.09,3.05-0.4,3.22-2.38c0.15-1.74-0.74-3.02-2.34-3.37c-8.18-1.83-16.45-2.66-24.48,0.42c-3.67,1.41-6.15,4.61-7.37,8.37
		c-2.95,9.06-3.36,18.26-0.6,27.43c1.51,5.03,4.78,8.62,9.71,10.7c1.54,0.65,3.77,0.72,3.83,3.22c-0.93-1.74-2.88-1.36-4.33-1.98
		c-5.35-2.3-9.05-5.92-10.64-11.66c-2.46-8.86-2.38-17.71,0.06-26.53c2.15-7.73,7.43-11.89,15.34-12.72c6.5-0.69,12.89,0,19.33,1.03
		c4.36,0.69,3.4,3.55,3.54,6.25c0.17,3.48-2.37,2.46-4.13,2.51c-3.99,0.09-7.99-0.1-11.98,0.07c-5.11,0.23-8.34,3.08-9.3,8.04
		c-1.01,5.26-1.17,10.52-0.08,15.82c1.25,6.07,3.55,8.16,9.85,8.33c4.16,0.11,8.32,0.01,12.48,0.03
		C144.2,373.04,146.55,372.38,146.24,375.74z"/>
	<path class="st0" d="M211.87,382.63h-1.13c-0.12-0.17-0.24-0.34-0.36-0.52c-5.16-7.25-9.46-15.05-14.16-22.58
		c-2.07-3.33-0.92-6.34,0.93-9.31c3.5-5.61,7.18-11.11,10.47-16.95c-7.26-2.02-9.87-1.08-13.5,4.81c-2.01,3.25-4.1,6.45-6.28,9.59
		c-1.89,2.73-4.39,4.09-7.71,3.06c-3.21-0.99-3.4-3.77-3.43-6.49c-0.09-9.3-0.1-18.61,0-27.91c0.03-3.61-0.47-6.21-5.05-5.97
		c-4.46,0.23-5.12,0.69-5.13,5.85c-0.04,20.1-0.01,40.2-0.03,60.3c0,1.97,0.17,3.96-0.45,5.88v0.01c-0.01,0.02-0.01,0.03-0.02,0.05
		c-0.07,0.14-0.15,0.28-0.23,0.42h-0.71c-0.1-17.93-0.21-35.87-0.31-53.8c-0.02-5.49,0.09-10.97-0.04-16.45
		c-0.06-2.43,0.42-3.59,3.23-3.52c12.86,0.32,10.2-1.64,10.41,9.99c0.15,8.8-0.01,17.61,0.06,26.42c0.01,1.48-0.87,3.78,1.68,3.95
		c2.15,0.15,4.64,1.05,6.25-1.65c2.46-4.12,5.35-8,7.63-12.21c1.89-3.48,4.26-5.09,8.27-4.55c2.45,0.32,4.98,0.06,8.38,0.06
		c-4.33,6.96-8.15,13.61-12.52,19.88c-2.37,3.39-2.28,5.93-0.09,9.28C202.84,367.6,207.28,375.16,211.87,382.63z"/>
	<path class="st0" d="M274.92,382.87h-0.7c-0.09-0.15-0.18-0.31-0.26-0.47v-0.01c0-0.01,0-0.01-0.01-0.02
		c-1.14-10.43-0.22-20.9-0.51-31.35c-0.07-2.49,0.14-4.99-0.24-7.46c-1.09-7.15-5.27-10.82-12.45-11.13
		c-4.58-0.19-8.96,0.47-12.96,2.84c-2.92,1.73-5.5,1.89-7.99-0.9c-1.99-2.23-4.78-2.42-7.37-1.46c-2.63,0.96-1.92,3.61-1.93,5.65
		c-0.08,12.46-0.03,24.92-0.05,37.38c-0.01,2.15,0.18,4.33-0.5,6.43c0,0.01-0.01,0.01-0.01,0.02c-0.08,0.16-0.17,0.32-0.27,0.48
		h-0.7c-0.1-16.42-0.21-32.84-0.29-49.26c-0.01-0.79-0.13-1.63,0.7-2.23c2.14-1.53,10.86,0.12,11.8,2.56
		c1.12,2.92,2.4,2.29,4.37,1.01c4.38-2.85,9.13-4.52,14.47-4.35c8.94,0.29,14.19,4.64,14.78,13.49
		C275.67,357,275.45,369.94,274.92,382.87z"/>
	<path class="st0" d="M308.97,365.36c0.79,4.71,3.44,7.43,8.3,7.64c5.46,0.24,10.92,0.4,16.39,0.52c1.91,0.04,3.88-0.15,3.44,2.69
		c-0.32,2.14,1.41,5.29-2.86,5.57c-2.79,0.18-5.56,0.79-8.34,1.21c-0.09,0.05-0.18,0.09-0.27,0.12c0-0.04,0.01-0.08,0.02-0.11
		c0.05-0.21,0.18-0.41,0.4-0.59c1.57-1.05,3.44-1.13,5.21-1.58c1.74-0.44,3.93-0.53,3.76-3.08c-0.17-2.59-2.36-2.5-4.15-2.46
		c-5.01,0.12-9.95-0.43-14.88-1.19c-4.34-0.67-6.74-3.37-7.85-7.36c-1.07-3.82,0.25-5.76,4.18-6.11c3.64-0.34,7.31-0.01,10.96-0.16
		c12.62-0.51,18.41-11.04,12.21-22.15c-2.07-3.71-5.61-5.18-9.48-5.66c-5.28-0.65-10.64-0.71-15.91,0.05
		c-7.04,1.02-10.85,4.85-12.4,11.8c-1.81,8.07-1.79,16.11-0.18,24.23c1.13,5.72,4.15,9.62,9.49,11.88c1.54,0.66,3.78,0.71,3.83,3.22
		c-0.13-0.28-0.22-0.78-0.41-0.82c-10.35-2.01-14.2-9.04-15.09-18.78c-0.64-7.01-0.42-13.9,1.07-20.74
		c1.45-6.64,5.54-10.88,12.27-12.08c6.73-1.19,13.55-1.44,20.21,0.37c7.41,2.03,10.23,6.94,9.98,16.67
		c-0.18,7.46-3.17,11.07-10.6,12.79c-5.41,1.26-10.91,0.61-16.37,0.56C308.93,361.78,308.58,363,308.97,365.36z"/>
	<path class="st0" d="M398.57,364.91c0.62,9.35-0.78,16.58-13.9,18.02c-0.34,0.04-0.63,0.6-0.95,0.91c0.39-2.72,2.86-2.32,4.57-2.9
		c6.99-2.38,9.83-7.48,8.86-16.23c-0.79-7.1-4.75-10.81-12.19-11.32c-3.47-0.23-6.98,0.14-10.45-0.22c-4.72-0.47-7.01-2.77-6.99-6.8
		c0.02-4,2.32-6.31,7.09-6.7c4.97-0.41,9.96-0.04,14.94-0.19c1.95-0.05,4.32,0.17,4.37-2.76c0.05-2.65-2-3.06-4.08-3.39
		c-7.26-1.16-14.53-1.65-21.78-0.05c-6.59,1.45-9.73,5.7-9.87,13c-0.16,8.68,2.25,12.34,9.3,14.31c4.08,1.14,8.24,0.77,12.38,0.91
		c5.33,0.18,7.83,2.13,8.01,6.16c0.19,4.15-2.01,6.52-7.16,7.25c-5.44,0.78-10.95,0.18-16.42,0.4c-1.88,0.07-4.36-0.47-4.68,2.4
		c-0.28,2.48,1.94,2.67,3.6,3.35c1.41,0.58,3.47,0.44,3.53,2.78c-1.29-2.06-3.62-1.32-5.36-1.63c-2.85-0.5-3.76-1.45-3.84-4.42
		c-0.11-3.56,1.01-4.39,4.45-4.35c6.78,0.06,13.57,0.43,20.37-0.28c3.99-0.42,4.41-2.64,4.36-5.77c-0.06-3.52-2.06-4.48-5.17-4.52
		c-5.12-0.08-10.27,0.44-15.32-1.04c-6.76-1.98-9.42-5.72-9.56-13.76c-0.16-8.81,2.68-14,9.14-15.8c9.18-2.55,18.42-1.45,27.6,0.23
		c4.11,0.76,2.3,4.11,2.55,6.45c0.31,2.87-2.01,2.02-3.45,2.03c-5.98,0.08-11.96-0.01-17.93,0.06c-3.46,0.03-6.01,0.84-6.11,5.3
		c-0.11,4.5,2.43,5.34,5.88,5.45c3.82,0.12,7.65-0.1,11.46,0.13C393.89,352.41,398.03,356.81,398.57,364.91z"/>
	<path class="st0" d="M415.37,337.65c0.14,2.17,1.7,2.69,3.41,2.93c3.4,0.49,4.2,2.84,4.26,5.75c0.13,6.49,0.03,12.97,0.05,19.46
		c0.05,10.58,1.54,12.64,11.46,15.74c0.64,0.2,1.24,0.46,1.8,0.83c0.24,0.2,0.38,0.41,0.43,0.65c0,0,0.01,0.01,0.01,0.02
		c-0.06,0-0.13-0.01-0.19-0.02c-11.87-1.21-15.22-4.87-15.25-16.91c-0.02-6.31-0.12-12.64,0.31-18.93c0.27-3.9-0.76-5.53-4.8-4.98
		c-1.24,0.16-3.47,0.76-3.2-1.72c0.27-2.44-1.64-6.74,1.34-7.02c8.44-0.81,7.73-6.87,8.63-12.38c0.23-1.41-0.86-3.82,1.62-4.05
		c2.93-0.27,6.01-0.33,8.85,0.3c1.34,0.3,0.58,2.69,0.59,4.12c0.11,9.74,0.09,9.74,9.94,9.66c0.99-0.01,1.99-0.1,2.98-0.15
		c-3.52,2.35-7.37,1.47-11.12,1c-2.14-0.27-2.86-2.04-3.11-3.99c-0.26-1.99-0.14-3.99-0.27-5.98c-0.13-2.17-1.19-3.38-3.41-3.46
		c-2.13-0.09-4.04,0.16-4.56,2.76c-0.33,1.63-0.73,3.26-0.84,4.92c-0.24,3.87-1.67,6.69-5.82,7.59
		C416.52,334.21,415.22,335.39,415.37,337.65z"/>
	<path class="st1" d="M86.77,350.57c-2.22-15.33-7.02-19.55-22.4-19.95c-16.94-0.43-22.3,4.08-24.65,20.76
		c-2.4,16.99,2.04,25.64,16.39,32c0.01,0,0.04,0.01,0.09,0.02c0.72,0.18,5.87,1.2,12.11,0.02c0.05-0.01,0.1-0.02,0.16-0.03
		c0.74-0.14,1.5-0.32,2.27-0.53c7.81-2.16,12.68-4.92,14.77-12.01c0.14-0.48,0.26-0.97,0.38-1.49
		C87.27,363.19,87.68,356.87,86.77,350.57z M63.31,372.65c-5.86-0.03-7.95-1.83-9.15-7.57c-1.16-5.61-1.13-11.17,0.07-16.75
		c1.13-5.29,3.3-6.95,9.08-6.93c5.82,0.02,7.72,1.58,9.13,6.94c0.78,2.95,0.71,5.9,0.81,8.88c-0.09,2.8-0.08,5.59-0.82,8.37
		C71.02,370.9,68.91,372.68,63.31,372.65z"/>
	<path class="st1" d="M311.9,361.81c5.46,0.05,10.96,0.7,16.37-0.56c7.43-1.72,10.42-5.33,10.6-12.79
		c0.25-9.73-2.57-14.64-9.98-16.67c-6.66-1.81-13.48-1.56-20.21-0.37c-6.73,1.2-10.82,5.44-12.27,12.08
		c-1.49,6.84-1.71,13.73-1.07,20.74c0.89,9.74,4.74,16.77,15.09,18.78c0.19,0.04,13.25,0.03,15.22-0.02
		c-0.01,0.03-0.02,0.07-0.02,0.11c0.09-0.03,0.18-0.07,0.27-0.12c2.78-0.42,5.55-1.03,8.34-1.21c4.27-0.28,2.54-3.43,2.86-5.57
		c0.44-2.84-1.53-2.65-3.44-2.69c-5.47-0.12-10.93-0.28-16.39-0.52c-4.86-0.21-7.51-2.93-8.3-7.64
		C308.58,363,308.93,361.78,311.9,361.81z M315.19,340.8c6.32-1.25,10.18,0.43,11.32,4.94c1.26,4.97-1.03,8.01-6.15,8.14
		c-1.49,0.04-2.98,0.01-4.48,0.01c-0.16,0-0.36,0.06-0.49-0.01c-2.11-1.05-6.02,2.55-6.55-2.42
		C308.21,345.66,310.67,341.69,315.19,340.8z"/>
	<path class="st1" d="M384.67,382.93c-0.34,0.04-21.54-0.41-23.28-0.72c-2.85-0.5-3.76-1.45-3.84-4.42
		c-0.11-3.56,1.01-4.39,4.45-4.35c6.78,0.06,13.57,0.43,20.37-0.28c3.99-0.42,4.41-2.64,4.36-5.77c-0.06-3.52-2.06-4.48-5.17-4.52
		c-5.12-0.08-10.27,0.44-15.32-1.04c-6.76-1.98-9.42-5.72-9.56-13.76c-0.16-8.81,2.68-14,9.14-15.8c9.18-2.55,18.42-1.45,27.6,0.23
		c4.11,0.76,2.3,4.11,2.55,6.45c0.31,2.87-2.01,2.02-3.45,2.03c-5.98,0.08-11.96-0.01-17.93,0.06c-3.46,0.03-6.01,0.84-6.11,5.3
		c-0.11,4.5,2.43,5.34,5.88,5.45c3.82,0.12,7.65-0.1,11.46,0.13c8.07,0.49,12.21,4.89,12.75,12.99
		C399.19,374.26,397.79,381.49,384.67,382.93z"/>
	<path class="st1" d="M434.68,345c0.13,6.61,0.07,13.23,0.12,19.85c0.03,4.72,2.33,7.38,7.15,7.7c1.49,0.1,2.97,0.28,4.45,0.43
		c0.03,3.27,0.06,6.55,0.1,9.82l-9.72,0.21c0,0,0.01,0.01,0.01,0.02c-0.06,0-0.13-0.01-0.19-0.02
		c-11.87-1.21-15.22-4.87-15.25-16.91c-0.02-6.31-0.12-12.64,0.31-18.93c0.27-3.9-0.76-5.53-4.8-4.98c-1.24,0.16-3.47,0.76-3.2-1.72
		c0.27-2.44-1.64-6.74,1.34-7.02c8.44-0.81,7.73-6.87,8.63-12.38c0.23-1.41-0.86-3.82,1.62-4.05c2.93-0.27,6.01-0.33,8.85,0.3
		c1.34,0.3,0.58,2.69,0.59,4.12c0.11,9.74,0.09,9.74,9.94,9.66c0.99-0.01,1.99-0.1,2.98-0.15v10.97c-3.3,0.11-6.6,0.29-9.9,0.3
		C435.74,342.23,434.64,342.7,434.68,345z"/>
	<path class="st1" d="M146.24,375.74c-0.23,2.5,0.83,5.31-3.25,6.08c-2.95,0.56-23.7,0.66-25.15,0.04
		c-5.35-2.3-9.05-5.92-10.64-11.66c-2.46-8.86-2.38-17.71,0.06-26.53c2.15-7.73,7.43-11.89,15.34-12.72c6.5-0.69,12.89,0,19.33,1.03
		c4.36,0.69,3.4,3.55,3.54,6.25c0.17,3.48-2.37,2.46-4.13,2.51c-3.99,0.09-7.99-0.1-11.98,0.07c-5.11,0.23-8.34,3.08-9.3,8.04
		c-1.01,5.26-1.17,10.52-0.08,15.82c1.25,6.07,3.55,8.16,9.85,8.33c4.16,0.11,8.32,0.01,12.48,0.03
		C144.2,373.04,146.55,372.38,146.24,375.74z"/>
	<path class="st1" d="M13.7,383.31c-0.12,0-0.24-0.01-0.36-0.02c0-0.11,0-0.23-0.01-0.34C13.54,383.06,13.67,383.18,13.7,383.31z"/>
	<path class="st1" d="M24.2,382.6c-0.19,0.09-0.38,0.17-0.57,0.23c-0.04-0.07-0.08-0.14-0.12-0.21c-3.39,0.12-6.78,0.23-10.18,0.33
		c-7.35-0.77-10.63-5.91-12.95-12.08v-2c0.97-1.71,0.48-3.58,0.49-5.36c0.04-16.6,0.09-33.19-0.04-49.79
		c-0.01-1.83,0.22-3.13,1.1-3.79c0.63-0.48,1.57-0.64,2.99-0.45c3.09,0.41,6.28-0.56,9.34,0.54c0.06,17.59,0.12,35.17,0.18,52.75
		c0.03,7.55,0.6,8.45,7.76,10.16c1.85,0.44,1.99,1.29,1.98,2.7C24.17,377.95,24.19,380.27,24.2,382.6z"/>
	<path class="st2" d="M262.95,382.24c-0.03,0.05-0.05,0.11-0.08,0.16c-0.08,0.16-0.16,0.32-0.26,0.47h-0.69
		c-0.11-9.94-0.2-19.88-0.32-29.83c-0.04-3.84,0.05-7.8-4.4-9.62c-3.54-1.44-11.69,0.34-14.07,2.89c-1.2,1.29-0.81,2.8-0.83,4.24
		c-0.13,10.78-0.22,21.55-0.33,32.32h-0.68c-0.09-0.15-0.18-0.3-0.25-0.46c-0.03-0.06-0.05-0.11-0.08-0.17
		c-1.07-10.76-0.61-21.54-0.28-32.3c0.13-4.34,4.65-7.58,10.39-8.32c5.27-0.68,9.33,1.3,11.17,5.47c0.54,1.23,0.96,2.52,0.99,3.84
		C263.44,361.37,263.97,371.81,262.95,382.24z"/>
	<path class="st3" d="M198.64,382.27c0,0.05-0.01,0.11-0.02,0.16c0,0.07-0.01,0.14-0.02,0.21h-0.46
		c-3.73-5.99-7.66-11.87-11.1-18.02c-1.83-3.27-4.56-3.14-7.18-2.58c-2.75,0.59-1.31,3.31-1.4,5.04
		c-0.29,5.26-0.27,10.53-0.38,15.79h-0.68c-0.09-0.15-0.17-0.3-0.25-0.46c-0.95-5.25-0.35-10.56-0.41-15.84
		c-0.03-2.3-0.05-4.87,2.9-5.64c2.72-0.72,5.6-0.5,7.25,1.9C191.18,369.07,196.02,375.01,198.64,382.27z"/>
	<path class="st4" d="M14.26,310.02c-4.06-0.04-6.84-0.07-8.74,0.31c-4.15,0.84-4.15,3.65-4.15,12.59c0,13.79,0.03,27.58-0.03,41.37
		c-0.01,1.54,0.8,3.37-0.96,4.58v-59.88C4.99,309.57,9.78,307.76,14.26,310.02z"/>
	<path class="st5" d="M13.7,383.31c-0.12,0-0.24-0.01-0.36-0.02c0-0.11,0-0.23-0.01-0.34C13.54,383.06,13.67,383.18,13.7,383.31z"/>
	<path class="st6" d="M211.87,382.63h-1.13c-4.05,0-8.1,0.01-12.14,0.01h-0.46c0.16-0.07,0.32-0.14,0.48-0.21
		c3.92-1.66,7.84-1.56,11.76-0.32C210.88,382.26,211.37,382.44,211.87,382.63z"/>
	<path class="st6" d="M178.08,382.87h-13c0.32-0.17,0.64-0.33,0.96-0.47v-0.01c3.7-1.69,7.41-1.69,11.11,0.02
		C177.46,382.55,177.77,382.7,178.08,382.87z"/>
	<path class="st6" d="M241.97,382.87h-13c0.32-0.17,0.65-0.34,0.97-0.48c3.71-1.7,7.4-1.69,11.1,0.02
		C241.35,382.55,241.66,382.7,241.97,382.87z"/>
	<path class="st6" d="M274.92,382.87h-13c0.32-0.17,0.63-0.33,0.95-0.47c3.69-1.7,7.39-1.7,11.09-0.01v0.01
		C274.28,382.54,274.6,382.7,274.92,382.87z"/>
	<path class="st6" d="M13.7,383.31c-0.12,0-0.24-0.01-0.36-0.02c0-0.11,0-0.23-0.01-0.34C13.54,383.06,13.67,383.18,13.7,383.31z"/>
	<path class="st6" d="M24.2,382.6l-0.69,0.02c0.04,0.07,0.08,0.14,0.12,0.21L24.2,382.6z"/>
	<path class="st6" d="M436.79,383.03c-0.06,0-0.13-0.01-0.19-0.02h0.18C436.78,383.01,436.79,383.02,436.79,383.03z"/>
	<path class="st7" d="M325.9,382.99c-0.09,0.05-0.18,0.09-0.27,0.12c0-0.04,0.01-0.08,0.02-0.11C325.73,383,325.81,383,325.9,382.99
		z"/>
	<path class="st1" d="M211.87,382.63h-1.13c-4.05,0-8.1,0.01-12.14,0.01h-0.46c-3.73-5.99-7.66-11.87-11.1-18.02
		c-1.83-3.27-4.56-3.14-7.18-2.58c-2.75,0.59-1.31,3.31-1.4,5.04c-0.29,5.26-0.27,10.53-0.38,15.79h-13
		c-0.1-17.93-0.21-35.87-0.31-53.8c-0.02-5.49,0.09-10.97-0.04-16.45c-0.06-2.43,0.42-3.59,3.23-3.52
		c12.86,0.32,10.2-1.64,10.41,9.99c0.15,8.8-0.01,17.61,0.06,26.42c0.01,1.48-0.87,3.78,1.68,3.95c2.15,0.15,4.64,1.05,6.25-1.65
		c2.46-4.12,5.35-8,7.63-12.21c1.89-3.48,4.26-5.09,8.27-4.55c2.45,0.32,4.98,0.06,8.38,0.06c-4.33,6.96-8.15,13.61-12.52,19.88
		c-2.37,3.39-2.28,5.93-0.09,9.28C202.84,367.6,207.28,375.16,211.87,382.63z"/>
	<path class="st1" d="M274.92,382.87h-13c-0.11-9.94-0.2-19.88-0.32-29.83c-0.04-3.84,0.05-7.8-4.4-9.62
		c-3.54-1.44-11.69,0.34-14.07,2.89c-1.2,1.29-0.81,2.8-0.83,4.24c-0.13,10.78-0.22,21.55-0.33,32.32h-13
		c-0.1-16.42-0.21-32.84-0.29-49.26c-0.01-0.79-0.13-1.63,0.7-2.23c2.14-1.53,10.86,0.12,11.8,2.56c1.12,2.92,2.4,2.29,4.37,1.01
		c4.38-2.85,9.13-4.52,14.47-4.35c8.94,0.29,14.19,4.64,14.78,13.49C275.67,357,275.45,369.94,274.92,382.87z"/>
</g>
<g>
	<path class="st8" d="M346.53,237.08c-1.67,23.09-25.45,45.42-49.61,45.07c-43.57-0.64-87.15-0.07-130.72-0.12
		c-27.93-0.03-52.31-20.94-55.13-47.08c-0.23-2.14-0.23-4.31-0.23-6.47c-0.01-34.09-0.01-68.18-0.01-102.28
		c0.01-12.24,3.42-15.63,15.73-15.63c6.93,0,7.09,0,6.89-7.22c-0.4-15.05,0.27-29.97,6.49-43.97c14.22-32,39-50.74,73.07-57.7
		c0.08-0.02,0.17-0.03,0.26-0.05c1.73-0.28,3.68,0.09,5.22-0.93c0.24-0.05,0.48-0.09,0.72-0.13c-0.78,2.14-3.05,2.06-4.81,2.36
		c-19.57,3.33-36.89,11.49-51.21,25.12c-17.14,16.33-27.1,36.37-28.17,60.34c-0.24,5.47,0.03,10.97-0.06,16.45
		c-0.1,6.22-1,7.06-7.37,7.22c-0.49,0.01-0.99,0-1.49,0.01c-10.63,0.12-13.96,3.3-14.03,14.12c-0.14,22.27-0.04,44.55-0.05,66.83
		c0,11.47-0.02,22.94,0.01,34.41c0.06,27.09,20.11,49.44,46.98,52.61c4.98,0.59,9.93,0.84,14.92,0.83
		c32.76-0.01,65.52,0.21,98.28-0.12c11.1-0.12,22.23,0.87,33.35-0.8c16.56-2.48,36.16-20.14,39.07-39.47
		c0.89-5.92,1.18-11.88,1.16-17.88c-0.08-30.93-0.04-61.85-0.04-92.77c0-2.16,0.09-4.33-0.16-6.48c-0.93-7.93-4.44-11.1-12.42-11.27
		c-10.37-0.23-10.68-0.24-10.3-10.73c0.6-16.72-1.45-32.79-9.31-47.86C299,25.57,275.66,9.74,245.35,3.25
		c-2.33-0.5-5.35,0.11-6.68-2.62c0.1,0.02,0.2,0.04,0.3,0.05c1.05,0.93,2.61,0.47,3.83,0.67c21.86,3.6,40.83,13.08,56.05,29.07
		c15.85,16.66,25.02,36.56,25.41,59.95c0.09,5.32,0.27,10.66-0.05,15.96c-0.22,3.67,1.16,4.72,4.52,4.27
		c1.47-0.19,2.99-0.03,4.49-0.03c9.42,0.05,13.69,4.23,13.7,13.78c0.06,30.43,0.06,60.87,0,91.3
		C346.9,222.79,347.04,229.93,346.53,237.08z"/>
	<path class="st8" d="M346.92,215.65c0.06-30.43,0.06-60.87,0-91.3c-0.01-9.55-4.28-13.73-13.7-13.78c-1.5,0-3.02-0.16-4.49,0.03
		c-3.36,0.45-4.74-0.6-4.52-4.27c0.32-5.3,0.14-10.64,0.05-15.96c-0.39-23.39-9.56-43.29-25.41-59.95
		C283.63,14.43,264.66,4.95,242.8,1.35c-0.62-0.1-2.2-0.38-3.83-0.67c-0.1-0.01-0.2-0.03-0.3-0.05c-2.16-0.39-4.29-0.77-4.29-0.77
		c-0.47,0.5-1.06,0.52-1.65,0.51c-0.11-0.01-0.22-0.01-0.33-0.01c-0.12,0-0.24,0-0.36,0.01h-6.29c-0.01,0-0.01,0-0.02,0
		c-0.12-0.01-0.23-0.01-0.35-0.01c-0.58,0-1.18,0.06-1.69-0.26c-0.06,0.01-0.12,0.02-0.18,0.02c-1.1,0.14-2.2,0.24-3.31,0.28
		c-0.32,0.06-0.65,0.11-0.99,0.17c-0.24,0.04-0.48,0.08-0.72,0.13c-2.01,0.34-4.12,0.71-5.22,0.93c-0.09,0.02-0.18,0.03-0.26,0.05
		c-34.07,6.96-58.85,25.7-73.07,57.7c-6.22,14-6.89,28.92-6.49,43.97c0.2,7.22,0.04,7.22-6.89,7.22c-12.31,0-15.72,3.39-15.73,15.63
		c0,34.1,0,68.19,0.01,102.28c0,2.16,0,4.33,0.23,6.47c2.82,26.14,27.2,47.05,55.13,47.08c43.57,0.05,87.15-0.52,130.72,0.12
		c24.16,0.35,47.94-21.98,49.61-45.07C347.04,229.93,346.9,222.79,346.92,215.65z M283.64,167.86c-0.82,3.04-1.72,6.07-2.39,9.15
		c-4.17,19.19-16.54,30.48-34.86,35.72c-3.89,1.11-4.85,2.63-3.51,6.16c0.35,0.92,0.47,1.93,0.68,2.9c0.55,2.44,1.54,5.44-0.75,6.96
		c-2.32,1.52-5.56,0.81-8.3,0.37c-2.37-0.38-1.79-2.84-1.95-4.56c-0.26-2.8,0.62-6.38-0.81-8.2c-1.66-2.12-5.18,0.66-7.94,0.07
		c-0.47-0.1-0.99-0.01-1.49-0.01c-6.08,0.03-6,0.02-5.07,6.12c0.33,2.21,1.45,5.51-0.59,6.48c-2.88,1.37-6.51,0.51-9.76-0.05
		c-1.14-0.19-0.6-1.64-0.58-2.62c0.07-2.98,0.03-5.96,0.03-10.07c-7.96,4.93-15.83,7.31-23.83,9.53
		c-11.93,3.3-23.38,0.47-34.96-1.57c-1.22-0.21-2.27-0.9-1.99-2.36c0.29-1.56,1.69-1.36,2.81-1.37c6.97-0.12,13.93-0.32,20.88-1.12
		c8.75-1.02,15.63-3.94,19.8-12.63c4.33-9.03,10.69-16.65,19.32-22.33c6.5-4.29,12.8-4.89,19.71-1.63
		c3.75,1.77,7.54,3.49,11.39,5.02c9.92,3.94,19.23,1.27,25.63-7.18c4.43-5.85,7.65-12.43,11.1-18.85
		c7.5-13.95,18.03-15.06,31.1-9.03c4.07,1.89,5.12,5.16,2.99,8.01c-2.48,3.35-5.64,3.5-8.53,0.73
		C293.57,153.63,285.97,159.24,283.64,167.86z M266.18,51.8c11.17,10.89,16.35,23.83,16.25,39.18c-0.03,5.15-0.19,10.31,0.06,15.45
		c0.16,3.27-0.9,4.23-4.17,4.2c-16.45-0.16-32.9-0.07-49.35-0.07c-16.12,0-32.24-0.18-48.35,0.11c-4.56,0.08-5.66-1.36-5.38-5.64
		c0.65-9.89-0.76-19.87,2.04-29.68C188.26,36.8,237.5,23.83,266.18,51.8z"/>
	<path class="st8" d="M230.43,0.72c-1.02,0.01-2.05,0.02-3.07,0.03c-0.3-0.21-0.4-0.41-0.29-0.61c0.11-0.19,0.22-0.29,0.32-0.29
		c1,0,2,0,2.99,0c0.31,0.18,0.42,0.37,0.33,0.56C230.62,0.62,230.53,0.72,230.43,0.72z"/>
	<path class="st8" d="M225.36,0.72C224.55,0.8,224,0,223,0c-5,1,1.73-0.14,2.39-0.14c0.33,0.2,0.44,0.4,0.32,0.59
		C225.6,0.63,225.48,0.72,225.36,0.72z"/>
	<path class="st8" d="M225.36,0.72c0.02-0.29,0.03-0.58,0.03-0.87c0.67,0,1.33,0,2,0c0,0.3-0.01,0.6-0.03,0.9
		C226.69,0.75,226.03,0.74,225.36,0.72z"/>
	<path class="st8" d="M230.43,0.72c-0.02-0.29-0.04-0.58-0.04-0.87c0.67,0,1.33,0,2,0c0.31,0.18,0.42,0.36,0.33,0.55
		c-0.1,0.2-0.19,0.29-0.3,0.29C231.75,0.71,231.09,0.72,230.43,0.72z"/>
	<path class="st8" d="M232.42,0.7c-0.02-0.28-0.03-0.56-0.03-0.85c0.67,0,1.33,0,2,0C234.05,0.9,233.24,0.82,232.42,0.7z"/>
</g>
</svg>
