<svg id="Calque_1" data-name="Calque 1" xmlns="http://www.w3.org/2000/svg" viewBox="0 0 165.85 80.47"><defs><style>.cls-1{fill:#fff;}</style></defs><title>LockNestDinosaure</title><path class="cls-1" d="M165.16,11.7c-2.48,3.35-5.64,3.5-8.53.73-8.2-7.87-15.8-2.26-18.13,6.36-.82,3-1.72,6.07-2.39,9.15-4.17,19.19-16.54,30.48-34.86,35.72-3.89,1.11-4.85,2.63-3.51,6.16a20,20,0,0,1,.68,2.9c.55,2.44,1.54,5.44-.75,7s-5.56.81-8.3.37c-2.37-.38-1.79-2.84-2-4.56-.26-2.8.62-6.38-.81-8.2-1.66-2.12-5.18.66-7.94.07a7.4,7.4,0,0,0-1.49,0c-6.08,0-6,0-5.07,6.12.33,2.21,1.45,5.51-.59,6.48-2.88,1.37-6.51.51-9.76,0-1.14-.19-.6-1.64-.58-2.62.07-3,0-6,0-10.07-8,4.93-15.83,7.31-23.83,9.53-11.93,3.3-23.38.47-35-1.57-1.22-.21-2.27-.9-2-2.36s1.69-1.36,2.81-1.37c7-.12,13.93-.32,20.88-1.12,8.75-1,15.63-3.94,19.8-12.63A54.41,54.41,0,0,1,63.24,35.36C69.74,31.07,76,30.47,83,33.73c3.75,1.77,7.54,3.49,11.39,5,9.92,3.94,19.23,1.27,25.63-7.18,4.43-5.85,7.65-12.43,11.1-18.85,7.5-13.95,18-15.06,31.1-9C166.24,5.58,167.29,8.85,165.16,11.7Z" transform="translate(-0.39 -0.22)"/></svg>