<svg id="Calque_1" data-name="Calque 1" xmlns="http://www.w3.org/2000/svg" viewBox="0 0 236.13 282.3"><title>LockNestIcone</title><path d="M235.53,237.08c-1.67,23.09-25.45,45.42-49.61,45.07-43.57-.64-87.15-.07-130.72-.12C27.27,282,2.89,261.09.07,235a60.64,60.64,0,0,1-.23-6.47q0-51.14,0-102.28c0-12.24,3.42-15.63,15.73-15.63,6.93,0,7.09,0,6.89-7.22-.4-15,.27-30,6.49-44,14.22-32,39-50.74,73.07-57.7l.26-.05c1.73-.28,3.68.09,5.22-.93l.72-.13c-.78,2.14-3,2.06-4.81,2.36C83.83,6.26,66.51,14.42,52.19,28.05,35.05,44.38,25.09,64.42,24,88.39c-.24,5.47,0,11-.06,16.45-.1,6.22-1,7.06-7.37,7.22H15.1c-10.63.12-14,3.3-14,14.12C.93,148.46,1,170.74,1,193,1,204.49,1,216,1,227.43A52.89,52.89,0,0,0,48,280a124.24,124.24,0,0,0,14.92.83c32.76,0,65.52.21,98.28-.12,11.1-.12,22.23.87,33.35-.8,16.56-2.48,36.16-20.14,39.07-39.47a117.35,117.35,0,0,0,1.16-17.88c-.08-30.93,0-61.85,0-92.77a56,56,0,0,0-.16-6.48c-.93-7.93-4.44-11.1-12.42-11.27-10.37-.23-10.68-.24-10.3-10.73.6-16.72-1.45-32.79-9.31-47.86C188,25.57,164.66,9.74,134.35,3.25c-2.33-.5-5.35.11-6.68-2.62l.3.05c1.05.93,2.61.47,3.83.67,21.86,3.6,40.83,13.08,56,29.07,15.85,16.66,25,36.56,25.41,60,.09,5.32.27,10.66,0,16-.22,3.67,1.16,4.72,4.52,4.27a35.37,35.37,0,0,1,4.49,0c9.42.05,13.69,4.23,13.7,13.78q.09,45.65,0,91.3C235.9,222.79,236,229.93,235.53,237.08Z" transform="translate(0.17 0.14)"/><path d="M235.92,215.65q.09-45.65,0-91.3c0-9.55-4.28-13.73-13.7-13.78a35.37,35.37,0,0,0-4.49,0c-3.36.45-4.74-.6-4.52-4.27.32-5.3.14-10.64,0-16-.39-23.39-9.56-43.29-25.41-59.95-15.22-16-34.19-25.47-56-29.07L128,.68l-.3-.05-4.29-.77a2,2,0,0,1-1.65.51h-7.35A3,3,0,0,1,112.69.1l-.18,0c-1.1.14-2.2.24-3.31.28l-1,.17-.72.13c-2,.34-4.12.71-5.22.93l-.26.05c-34.07,7-58.85,25.7-73.07,57.7-6.22,14-6.89,28.92-6.49,44,.2,7.22,0,7.22-6.89,7.22C3.25,110.57-.16,114-.17,126.2q0,51.15,0,102.28A60.64,60.64,0,0,0,.07,235C2.89,261.09,27.27,282,55.2,282c43.57.05,87.15-.52,130.72.12,24.16.35,47.94-22,49.61-45.07C236,229.93,235.9,222.79,235.92,215.65Zm-63.28-47.79c-.82,3-1.72,6.07-2.39,9.15-4.17,19.19-16.54,30.48-34.86,35.72-3.89,1.11-4.85,2.63-3.51,6.16a20,20,0,0,1,.68,2.9c.55,2.44,1.54,5.44-.75,7s-5.56.81-8.3.37c-2.37-.38-1.79-2.84-2-4.56-.26-2.8.62-6.38-.81-8.2-1.66-2.12-5.18.66-7.94.07a7.4,7.4,0,0,0-1.49,0c-6.08,0-6,0-5.07,6.12.33,2.21,1.45,5.51-.59,6.48-2.88,1.37-6.51.51-9.76-.05-1.14-.19-.6-1.64-.58-2.62.07-3,0-6,0-10.07-8,4.93-15.83,7.31-23.83,9.53-11.93,3.3-23.38.47-35-1.57-1.22-.21-2.27-.9-2-2.36s1.69-1.36,2.81-1.37c7-.12,13.93-.32,20.88-1.12,8.75-1,15.63-3.94,19.8-12.63a54.41,54.41,0,0,1,19.32-22.33c6.5-4.29,12.8-4.89,19.71-1.63,3.75,1.77,7.54,3.49,11.39,5,9.92,3.94,19.23,1.27,25.63-7.18,4.43-5.85,7.65-12.43,11.1-18.85,7.5-13.95,18-15.06,31.1-9,4.07,1.89,5.12,5.16,3,8-2.48,3.35-5.64,3.5-8.53.73C182.57,153.63,175,159.24,172.64,167.86ZM155.18,51.8C166.35,62.69,171.53,75.63,171.43,91c0,5.15-.19,10.31.06,15.45.16,3.27-.9,4.23-4.17,4.2-16.45-.16-32.9-.07-49.35-.07-16.12,0-32.24-.18-48.35.11-4.56.08-5.66-1.36-5.38-5.64.65-9.89-.76-19.87,2-29.68C77.26,36.8,126.5,23.83,155.18,51.8Z" transform="translate(0.17 0.14)"/><path d="M119.43.72l-3.07,0c-.31-.22-.4-.42-.29-.62s.21-.28.32-.28h3c.31.17.42.36.33.56S119.53.72,119.43.72Z" transform="translate(0.17 0.14)"/><path d="M114.36.72C113.55.8,113,0,112,0c-5,1,1.73-.14,2.39-.14.34.2.44.4.32.59S114.48.72,114.36.72Z" transform="translate(0.17 0.14)"/><path d="M114.36.72a6.13,6.13,0,0,0,0-.86h2q0,.45,0,.9Z" transform="translate(0.17 0.14)"/><path d="M119.43.72a8.25,8.25,0,0,1,0-.86h2c.32.17.43.36.33.55s-.19.29-.29.29Z" transform="translate(0.17 0.14)"/><path d="M121.42.7c0-.28,0-.56,0-.84h2C123.05.9,122.24.82,121.42.7Z" transform="translate(0.17 0.14)"/></svg>